<?xml version="1.0" standalone="no"?>
<!DOCTYPE svg PUBLIC "-//W3C//DTD SVG 20010904//EN"
 "http://www.w3.org/TR/2001/REC-SVG-20010904/DTD/svg10.dtd">
<svg version="1.0" xmlns="http://www.w3.org/2000/svg"
 width="400.000000pt" height="400.000000pt" viewBox="0 0 400.000000 400.000000"
 preserveAspectRatio="xMidYMid meet">
<metadata>
Created by potrace 1.11, written by Peter Selinger 2001-2013
</metadata>
<g transform="translate(0.000000,400.000000) scale(0.100000,-0.100000)"
fill="#000000" stroke="none">
<path d="M1770 3799 c-317 -48 -552 -137 -790 -300 -88 -61 -103 -72 -208
-167 -291 -261 -506 -684 -560 -1102 -11 -90 -7 -409 7 -490 19 -110 19 -106
41 -193 82 -314 251 -604 489 -835 85 -83 260 -222 279 -222 6 0 12 -4 14 -8
14 -34 386 -196 496 -217 13 -2 31 -6 40 -9 34 -10 72 -17 207 -36 60 -9 348
-6 415 4 194 28 368 81 540 163 63 30 117 58 120 62 3 3 21 15 40 25 58 32
210 150 287 223 254 241 440 565 513 894 40 178 49 267 45 449 -4 189 -5 201
-40 365 -114 533 -478 995 -970 1230 -156 74 -334 132 -470 151 -27 3 -59 9
-70 11 -36 9 -368 10 -425 2z"/>
</g>
</svg>
